#!OML:ASF E:\emotionWalksFemale\Project 1\Capture day 1\Session 1\Female1.ASF
:FULLY-SPECIFIED
:DEGREES
330
root 9.07678 15.0709 22.5266 187.313 -29.8851 181.81
lowerback 11.4304 4.14739 3.50291
upperback -4.37875 6.20346 1.20579
thorax -10.9264 2.74086 -1.91934
lowerneck -9.33757 7.60461 4.09081
upperneck -2.52668 9.59826 -9.04607
head 1.5223 4.48844 -3.20815
rclavicle -1.24588e-013 -2.8625e-014
rhumerus -17.2514 31.1933 -90.6778
rradius 56.2976
rwrist 15.7089
rhand -4.09149 -59.6369
rfingers 7.12502
rthumb 21.6661 -448.445
lclavicle -1.24588e-013 -2.8625e-014
lhumerus -46.5675 -4.18011 86.3707
lradius 26.8187
lwrist -33.7123
lhand -3.82446 -31.8691
lfingers 7.12502
lthumb 21.9225 -3.09121
rfemur -19.7099 -19.7375 30.862
rtibia 41.6292
rfoot -22.4089 -25.12
rtoes -2.37904
lfemur -29.856 -15.4949 -16.6221
ltibia 44.6244
lfoot -19.3351 -15.0978
ltoes -4.34491
331
root 9.08027 15.2886 22.4303 186.831 -32.8404 181.292
lowerback 10.6697 4.25836 3.06048
upperback -4.37415 6.2405 1.09881
thorax -10.5004 2.8042 -1.7321
lowerneck -9.13069 8.20995 4.56185
upperneck -1.50047 10.4956 -9.18535
head 1.9284 4.93895 -3.27559
rclavicle -4.76089e-014 2.38542e-015
rhumerus -18.1518 31.236 -91.0031
rradius 56.0985
rwrist 16.3948
rhand -4.65976 -59.2769
rfingers 7.12502
rthumb 21.1203 -448.147
lclavicle -4.76089e-014 2.38542e-015
lhumerus -47.0924 -4.37792 86.2843
lradius 26.8401
lwrist -35.1337
lhand -2.30662 -31.0991
lfingers 7.12502
lthumb 23.3793 -2.49913
rfemur -16.9565 -20.4529 30.1022
rtibia 38.5572
rfoot -18.7704 -25.4522
rtoes -2.84354
lfemur -27.2931 -16.4274 -17.1859
ltibia 40.8562
lfoot -14.8205 -16.5654
ltoes 2.62562
332
root 9.09292 15.5163 22.3622 186.183 -35.3946 182.026
lowerback 10.0045 4.47561 3.69936
upperback -4.64253 6.59333 1.1195
thorax -10.3222 2.93104 -2.0755
lowerneck -9.05392 8.90377 5.17648
upperneck -0.336564 11.5012 -9.34488
head 2.43625 5.43514 -3.35579
rclavicle -1.08847e-013 -2.8625e-014
rhumerus -19.1666 31.5038 -91.5239
rradius 55.5942
rwrist 16.9284
rhand -5.18001 -59.3611
rfingers 7.12502
rthumb 20.6205 -448.286
lclavicle -1.08847e-013 -2.8625e-014
lhumerus -47.7374 -4.83542 86.1818
lradius 27.0631
lwrist -36.1479
lhand -1.19046 -30.6398
lfingers 7.12502
lthumb 24.4496 -2.18017
rfemur -14.9915 -19.4471 30.6971
rtibia 35.5205
rfoot -14.6756 -26.4758
rtoes -3.08315
lfemur -25.53 -16.9049 -16.3667
ltibia 37.0411
lfoot -9.38383 -17.3933
ltoes 8.63172
333
root 9.09466 15.7628 22.288 185.786 -37.9531 181.982
lowerback 9.42033 4.67115 3.73815
upperback -4.85263 6.82008 0.953229
thorax -10.1714 3.03525 -2.267
lowerneck -8.52356 9.56196 6.14561
upperneck 0.614476 12.436 -10.1586
head 2.58968 5.87697 -3.3572
rclavicle 4.47638e-014 3.89618e-014
rhumerus -20.525 31.6883 -92.2493
rradius 55.0044
rwrist 17.707
rhand -5.5562 -59.03
rfingers 7.12502
rthumb 20.2589 -447.993
lclavicle 4.47638e-014 3.89618e-014
lhumerus -48.15 -5.1573 86.0137
lradius 27.0491
lwrist -37.0018
lhand 0.178578 -30.1181
lfingers 7.12502
lthumb 25.7614 -1.84204
rfemur -12.8404 -17.85 30.4202
rtibia 32.5243
rfoot -10.4532 -27.8745
rtoes -3.36536
lfemur -23.4087 -17.7627 -16.3353
ltibia 32.9185
lfoot -2.86342 -17.2627
ltoes 16.7333
334
root 9.09463 16.0209 22.2132 185.474 -40.5877 181.755
lowerback 8.93698 4.7934 3.6485
upperback -5.03682 6.93322 0.739407
thorax -10.0651 3.09119 -2.42557
lowerneck -8.05294 10.1938 6.88507
upperneck 1.4528 13.3437 -10.4205
head 2.90445 6.33123 -3.47161
rclavicle 6.16046e-014 1.86858e-014
rhumerus -21.8653 31.3627 -93.1167
rradius 54.08
rwrist 18.9525
rhand -5.38395 -58.1178
rfingers 7.12502
rthumb 20.4245 -447.064
lclavicle 6.16046e-014 1.86858e-014
lhumerus -48.3206 -5.25627 85.7763
lradius 26.9777
lwrist -37.494
lhand 1.99373 -29.453
lfingers 7.12502
lthumb 27.4986 -1.44082
rfemur -10.6844 -15.374 30.0235
rtibia 29.4961
rfoot -6.60022 -30.2608
rtoes -1.7944
lfemur -21.3557 -18.8751 -16.4317
ltibia 28.8123
lfoot 4.23831 -15.5982
ltoes 24.3461
335
root 9.09609 16.2819 22.1137 184.893 -43.2127 181.481
lowerback 8.54135 4.90402 3.29987
upperback -5.01501 7.00433 0.551468
thorax -9.81786 3.15555 -2.40486
lowerneck -8.31321 10.9534 7.19309
upperneck 2.85635 14.4405 -10.1305
head 3.4575 6.85978 -3.2862
rclavicle -3.40419e-014 -1.39149e-014
rhumerus -23.0016 31.2484 -94.0294
rradius 52.9684
rwrist 19.8483
rhand -5.22573 -57.8537
rfingers 7.12502
rthumb 20.5765 -446.783
lclavicle -3.40419e-014 -1.39149e-014
lhumerus -48.2592 -5.24623 85.3295
lradius 26.8239
lwrist -37.9236
lhand 3.50211 -29.0706
lfingers 7.12502
lthumb 28.9403 -1.29662
rfemur -8.04305 -11.9268 29.7045
rtibia 26.4651
rfoot -4.83221 -34.0893
rtoes 6.73104
lfemur -18.8492 -20.1343 -16.6263
ltibia 24.6286
lfoot 10.9064 -11.9255
ltoes 30.5993
336
root 9.08803 16.5334 22.0323 184.657 -45.7498 181.06
lowerback 8.04302 5.05495 3.10809
upperback -4.98829 7.14057 0.287317
thorax -9.47359 3.24102 -2.54619
lowerneck -8.06013 11.7341 8.23518
upperneck 3.73271 15.5369 -10.7646
head 3.90761 7.38222 -3.5046
rclavicle 4.27014e-014 -8.74653e-015
rhumerus -24.2884 31.7902 -94.8815
rradius 52.1427
rwrist 20.3363
rhand -6.14916 -58.2513
rfingers 7.12502
rthumb 19.689 -447.274
lclavicle 4.27014e-014 -8.74653e-015
lhumerus -47.9232 -4.9069 84.6456
lradius 26.4493
lwrist -38.599
lhand 5.52844 -29.4283
lfingers 7.12502
lthumb 30.8739 -2.00282
rfemur -5.77562 -8.06122 29.4148
rtibia 23.4467
rfoot -6.45511 -38.6498
rtoes 22.5497
lfemur -16.9606 -21.8254 -16.8502
ltibia 20.8766
lfoot 16.5618 -5.80308
ltoes 38.3851
337
root 9.07335 16.801 21.9567 184.851 -48.2669 180.285
lowerback 7.49649 5.2245 2.74419
upperback -4.99887 7.27699 -0.0522097
thorax -9.15375 3.33313 -2.6668
lowerneck -8.35583 12.4984 9.25082
upperneck 5.35184 16.6397 -11.2128
head 4.67519 7.87809 -3.59761
rclavicle 8.83846e-014 4.37326e-015
rhumerus -25.901 32.17 -95.8288
rradius 51.5748
rwrist 20.8782
rhand -5.71898 -58.7049
rfingers 7.12502
rthumb 20.1025 -447.685
lclavicle 8.83846e-014 4.37326e-015
lhumerus -47.7397 -4.89202 84.2575
lradius 26.3626
lwrist -38.5649
lhand 9.59145 -29.983
lfingers 7.12502
lthumb 34.7387 -3.36633
rfemur -3.80531 -3.77273 28.9254
rtibia 20.6067
rfoot -13.8832 -42.4994
rtoes 38.6799
lfemur -15.9419 -24.852 -16.9436
ltibia 18.0184
lfoot 18.7287 2.63484
ltoes 46.5869
338
root 9.05531 17.062 21.8718 185.168 -50.9864 179.247
lowerback 6.99897 5.38295 2.13392
upperback -4.98244 7.37731 -0.404001
thorax -8.86584 3.42085 -2.66213
lowerneck -8.33865 13.1183 10.1011
upperneck 6.61129 17.554 -11.5963
head 5.26285 8.29613 -3.68523
rclavicle -8.39865e-014 -7.95139e-016
rhumerus -27.6635 31.7547 -96.7763
rradius 51.1002
rwrist 21.7511
rhand -6.67041 -58.9964
rfingers 7.12502
rthumb 19.1878 -448.07
lclavicle -8.39865e-014 -7.95139e-016
lhumerus -47.8174 -5.74296 84.4121
lradius 26.6473
lwrist -37.7864
lhand 11.6742 -28.777
lfingers 7.12502
lthumb 36.7125 -2.63877
rfemur -1.99407 1.28843 28.4931
rtibia 18.6477
rfoot -28.5286 -42.4024
rtoes 52.2294
lfemur -15.0517 -29.1142 -17.0924
ltibia 16.0538
lfoot 18.2129 9.74378
ltoes 48.8029
